<svg width="236" height="96" viewBox="0 0 236 96" fill="none" xmlns="http://www.w3.org/2000/svg">
<path d="M165.488 0V74.88H180.079V0H165.488Z" fill="white"/>
<path fill-rule="evenodd" clip-rule="evenodd" d="M50.7585 74.88V30.72H64.7745V74.88H50.7585Z" fill="white"/>
<path fill-rule="evenodd" clip-rule="evenodd" d="M10.752 7.68H15.552V21.6V34.848H39.84V47.904H15.552V74.88H0V7.68H10.752Z" fill="white"/>
<path d="M40.8 21.6V7.68H15.552V21.6H40.8Z" fill="white"/>
<path fill-rule="evenodd" clip-rule="evenodd" d="M75.2738 30.72H89.5778V36.1834C89.0572 36.9302 88.5772 37.733 88.1378 38.592C86.7938 41.344 86.1217 44.48 86.1217 48L89.5778 53.088V74.88H75.2738V30.72ZM89.5778 53.088V36.1834C90.7249 34.5377 92.0689 33.1646 93.6098 32.064C95.8498 30.464 98.1858 29.664 100.618 29.664C102.218 29.664 103.754 29.984 105.226 30.624C106.698 31.264 107.818 32.16 108.586 33.312L102.346 45.696C101.578 44.928 100.746 44.32 99.8498 43.872C99.0178 43.424 97.9617 43.2 96.6817 43.2C95.2737 43.2 94.0258 43.584 92.9378 44.352C91.8498 45.12 91.0178 46.24 90.4418 47.712C89.8658 49.184 89.5778 50.976 89.5778 53.088Z" fill="white"/>
<path d="M88.1378 38.592C86.7938 41.344 86.1217 44.48 86.1217 48L89.5778 53.088V36.1834C89.0572 36.9302 88.5772 37.733 88.1378 38.592Z" fill="white"/>
<path fill-rule="evenodd" clip-rule="evenodd" d="M148.664 72.576C144.76 74.752 139.992 75.84 134.36 75.84C129.24 75.84 124.792 74.912 121.016 73.056C117.304 71.136 114.424 68.448 112.376 64.992C110.328 61.536 109.304 57.472 109.304 52.8C109.304 48.064 110.296 43.968 112.28 40.512C114.264 37.056 117.112 34.4 120.824 32.544C124.6 30.688 129.048 29.76 134.168 29.76C139.288 29.76 143.608 30.656 147.128 32.448C150.648 34.176 153.336 36.704 155.192 40.032C157.048 43.36 157.976 47.392 157.976 52.128V54.24C157.976 54.88 157.912 55.424 157.784 55.872H124.111C123.968 54.8554 123.896 53.7674 123.896 52.608C123.932 50.952 124.069 49.458 124.308 48.126C124.327 48.019 124.347 47.913 124.367 47.808H142.387C142.279 46.3272 141.94 45.0152 141.368 43.872C140.664 42.464 139.672 41.376 138.392 40.608C137.112 39.84 135.608 39.456 133.88 39.456C131.704 39.456 129.88 39.936 128.408 40.896C126.936 41.856 125.816 43.328 125.048 45.312C124.772 46.0652 124.545 46.8972 124.367 47.808H117.464V55.872H124.111C124.299 57.2122 124.612 58.4282 125.048 59.52C125.816 61.44 126.968 62.912 128.504 63.936C130.04 64.896 131.928 65.376 134.168 65.376C136.728 65.376 138.904 64.896 140.696 63.936C142.552 62.976 144.024 61.536 145.112 59.616L158.072 62.784C155.768 67.136 152.632 70.4 148.664 72.576Z" fill="white"/>
<path d="M117.464 47.808V55.872H124.111C123.968 54.8554 123.896 53.7674 123.896 52.608C123.932 50.952 124.069 49.458 124.308 48.126C124.327 48.019 124.347 47.913 124.367 47.808H117.464Z" fill="white"/>
<path fill-rule="evenodd" clip-rule="evenodd" d="M220.258 30.72H235.139L206.339 96H191.747L202.499 71.328L183.395 30.72H199.331L209.851 56.7741L206.146 66.048L213.635 66.144L209.851 56.7741L220.258 30.72Z" fill="white"/>
<path d="M206.146 66.048L213.635 66.144L209.851 56.7741L206.146 66.048Z" fill="white"/>
<path d="M49.3185 14.112C49.3185 16.416 50.1505 18.304 51.8145 19.776C53.4785 21.248 55.4625 21.984 57.7665 21.984C60.1345 21.984 62.1185 21.248 63.7185 19.776C65.3825 18.304 66.2145 16.416 66.2145 14.112C66.2145 11.808 65.3825 9.952 63.7185 8.544C62.1185 7.072 60.1345 6.336 57.7665 6.336C55.4625 6.336 53.4785 7.072 51.8145 8.544C50.1505 9.952 49.3185 11.808 49.3185 14.112Z" fill="#FFBEF8"/>
</svg>
